# xmcd
#
# Track frame offsets:
#	150
#	1225
#	12402
#	35630
#	56384
#	72887
#	90481
#	109041
#	131458
#	150807
#	186199
#	205169
#	232449
#	247864
#	307262
#
# Disc length: 4738 seconds
#
# Revision: 1
# Processed by: cddbd v1.5.2PL0 Copyright (c) Steve Scherf et al.
# Submitted via: EasyCDDAExtractor 10.5.1.1
#
DISCID=be12800f
DTITLE=Gregg Allman Band - 14-05-87 Wolfgang's, San Francisco
DYEAR=1900
DGENRE=Blues
TTITLE0=Intro
TTITLE1=Don't Want You No More
TTITLE2=Not My Cross To Bear
TTITLE3=Old Time Feelin'
TTITLE4=Faces Without Names
TTITLE5=Trouble No More
TTITLE6=Anything Goes
TTITLE7=Hot 'Lanta
TTITLE8=Those Things That You Used To Do
TTITLE9=Queen Of Hearts
TTITLE10=I'm No Angel
TTITLE11=Statesboro Blues
TTITLE12=Please Call Home
TTITLE13=Whipping Post
TTITLE14=encore - One Way Out
EXTD=
EXTT0=
EXTT1=
EXTT2=
EXTT3=
EXTT4=
EXTT5=
EXTT6=
EXTT7=
EXTT8=
EXTT9=
EXTT10=
EXTT11=
EXTT12=
EXTT13=
EXTT14=
PLAYORDER=
